<?xml version="1.0" encoding="utf-8"?>
<svg xmlns="http://www.w3.org/2000/svg" viewBox="0 0 500 500">
  <g transform="matrix(0.026529, 0, 0, -0.026529, -15.360599, 515.343941)" fill="#000000" stroke="none">
    <path d="M9480 19410 c-2463 -147 -4696 -1193 -6376 -2987 -1342 -1433 -2210 -3281 -2453 -5223 -85 -676 -97 -1400 -36 -2065 241 -2604 1545 -4975 3621 -6586 1421 -1103 3134 -1775 4924 -1934 525 -46 1116 -48 1630 -5 1784 150 3469 798 4900 1883 253 192 552 445 756 640 60 57 126 119 147 137 96 86 627 665 627 684 0 5 -104 97 -490 431 -70 61 -191 166 -270 235 -79 69 -200 175 -270 235 -69 61 -271 236 -449 390 -177 154 -326 280 -330 280 -5 0 -48 -45 -96 -100 -614 -703 -1363 -1278 -2200 -1689 -821 -403 -1697 -635 -2637 -697 -236 -15 -858 -7 -1078 15 -960 96 -1831 357 -2651 796 -1477 791 -2620 2079 -3234 3645 -542 1382 -622 2946 -225 4390 697 2539 2788 4489 5365 5004 1110 221 2258 174 3345 -139 942 -271 1834 -754 2600 -1408 249 -213 582 -547 761 -764 35 -42 69 -77 74 -77 9 -1 387 318 1558 1310 l257 218 -101 118 c-1408 1640 -3353 2751 -5474 3127 -337 60 -561 89 -945 122 -216 18 -1021 27 -1250 14z" style="fill: rgb(243, 243, 243);"/>
    <path d="M9093 15890 c-846 -137 -1622 -438 -2336 -906 -1036 -680 -1843 -1682 -2287 -2839 -60 -156 -160 -456 -160 -480 0 -7 170 -166 377 -352 350 -313 848 -759 1683 -1507 184 -165 403 -361 486 -436 83 -74 239 -214 347 -310 l197 -175 0 -1108 0 -1108 -27 19 c-124 88 -450 403 -597 576 -397 466 -692 1024 -857 1621 -12 44 -25 83 -28 87 -3 4 -310 -83 -681 -193 -371 -110 -731 -216 -800 -235 -69 -20 -128 -39 -133 -43 -10 -10 83 -323 154 -518 739 -2019 2491 -3480 4604 -3838 80 -14 155 -25 166 -25 19 0 19 44 19 2733 l0 2733 -337 323 c-186 178 -394 379 -463 445 -69 67 -296 286 -505 486 -354 339 -515 495 -1155 1111 -135 129 -264 253 -287 273 -24 21 -43 42 -43 45 0 12 129 200 209 305 202 265 533 599 764 770 l37 28 0 -496 0 -496 900 0 900 0 0 1765 c0 1675 -1 1765 -17 1764 -10 -1 -68 -9 -130 -19z" style="fill: rgb(243, 243, 243);"/>
    <path d="M10840 10015 c0 -4880 2 -5895 13 -5895 7 0 78 11 158 25 525 89 999 234 1489 456 l180 81 0 682 c0 374 3 1366 7 2204 l6 1522 719 0 c437 0 718 -4 718 -9 0 -5 -14 -63 -30 -128 -142 -551 -411 -1102 -749 -1533 -37 -47 -70 -90 -74 -97 -9 -15 -35 9 682 -627 327 -290 599 -525 605 -523 6 2 42 41 79 88 651 803 1088 1772 1252 2779 62 382 79 643 72 1084 -5 342 -16 481 -58 771 -139 951 -530 1893 -1109 2671 -911 1223 -2270 2060 -3750 2308 -85 14 -167 28 -182 31 l-28 5 0 -5895z m1949 3171 c570 -501 1003 -1158 1234 -1871 45 -139 107 -370 107 -399 0 -14 -76 -16 -730 -16 l-730 0 0 1190 c0 655 3 1190 6 1190 3 0 54 -42 113 -94z" style="fill: rgb(243, 243, 243);"/>
    <path d="M18075 11219 c-167 -21 -347 -89 -497 -189 -576 -382 -709 -1161 -293 -1714 179 -239 462 -408 764 -457 110 -18 303 -13 419 11 455 92 817 440 923 886 193 815 -483 1567 -1316 1463z m377 -273 c408 -111 677 -430 713 -846 13 -141 -27 -345 -92 -475 -68 -135 -194 -278 -318 -362 -301 -203 -687 -214 -997 -29 -210 124 -365 329 -430 566 -32 118 -32 356 0 472 95 347 362 601 712 679 103 23 320 20 412 -5z" style="fill: rgb(243, 243, 243);"/>
    <path d="M17680 9995 l0 -625 150 0 150 0 0 245 0 246 117 -3 118 -3 131 -240 130 -240 173 -3 172 -2 -17 32 c-9 18 -62 116 -116 218 -55 102 -111 206 -125 231 l-24 45 74 75 c42 43 85 97 100 128 24 48 27 67 27 154 0 55 -5 118 -12 141 -16 56 -115 154 -193 192 l-60 29 -397 3 -398 3 0 -626z m651 342 c19 -12 39 -34 46 -48 17 -34 0 -92 -34 -119 -24 -18 -40 -20 -194 -20 l-169 0 0 105 0 105 159 0 c148 0 160 -1 192 -23z" style="fill: rgb(243, 243, 243);"/>
  </g>
</svg>